<svg width="18" height="18" viewBox="0 0 18 18" fill="none" xmlns="http://www.w3.org/2000/svg">
<path d="M11.3574 14.7144C11.3574 15.9769 10.6199 17.0001 9.35735 17.0001H4.64307C3.38057 17.0001 2.64307 15.9769 2.64307 14.7144" stroke="#979797" stroke-miterlimit="10" stroke-linecap="round"/>
<path d="M11.8571 11.8572C12.4882 11.8572 13 12.4968 13 13.2857C13 14.0747 12.4882 14.7143 11.8571 14.7143H2.14286C1.51179 14.7143 1 14.0747 1 13.2857C1 12.4968 1.51179 11.8572 2.14286 11.8572" stroke="#979797" stroke-miterlimit="10" stroke-linecap="round"/>
<path d="M12.1429 11.8571H6.26107C6.1854 11.8571 6.11283 11.8872 6.05929 11.9407L5.10107 12.8989C5.0878 12.9122 5.07205 12.9227 5.05471 12.9299C5.03736 12.9371 5.01877 12.9408 5 12.9408C4.98123 12.9408 4.96264 12.9371 4.94529 12.9299C4.92795 12.9227 4.9122 12.9122 4.89893 12.8989L3.94071 11.9407C3.88717 11.8872 3.8146 11.8571 3.73893 11.8571H1.85714C1.62981 11.8571 1.4118 11.7668 1.25105 11.6061C1.09031 11.4453 1 11.2273 1 11V11C1 10.7726 1.09031 10.5546 1.25105 10.3939C1.4118 10.2331 1.62981 10.1428 1.85714 10.1428H12.1429C12.3702 10.1428 12.5882 10.2331 12.7489 10.3939C12.9097 10.5546 13 10.7726 13 11C13 11.2273 12.9097 11.4453 12.7489 11.6061C12.5882 11.7668 12.3702 11.8571 12.1429 11.8571Z" stroke="#979797" stroke-miterlimit="10" stroke-linecap="round"/>
<path d="M2.14307 9.71436V9.7065C2.14307 7.74221 3.75021 6.71436 5.7145 6.71436H8.28592C10.2502 6.71436 11.8574 7.75007 11.8574 9.71436V9.7065" stroke="#979797" stroke-miterlimit="10" stroke-linecap="round"/>
<path d="M8.46436 3.85718L8.73007 6.14182" stroke="#979797" stroke-miterlimit="10" stroke-linecap="round"/>
<path d="M9 17H13.9754C14.2637 17 14.5414 16.891 14.7527 16.6949C14.9641 16.4988 15.0935 16.2301 15.115 15.9425L16.3929 3.85718" stroke="#979797" stroke-miterlimit="10" stroke-linecap="round"/>
<path d="M13 3.85714L13.5714 1.57143L15.25 1" stroke="#979797" stroke-linecap="round" stroke-linejoin="round"/>
<path d="M7.85693 3.85718H16.9998" stroke="#979797" stroke-miterlimit="10" stroke-linecap="round"/>
</svg>
