<svg width="18" height="15" viewBox="0 0 18 15" fill="none" xmlns="http://www.w3.org/2000/svg">
<path d="M13.7998 13.8L16.859 10.7408C16.949 10.6509 16.9997 10.5289 16.9998 10.4016V6.2C16.9998 5.88174 16.8734 5.57652 16.6483 5.35147C16.4233 5.12643 16.1181 5 15.7998 5V5C15.4815 5 15.1763 5.12643 14.9513 5.35147C14.7262 5.57652 14.5998 5.88174 14.5998 6.2V9.8" stroke="#979797" stroke-linecap="round" stroke-linejoin="round"/>
<path d="M13.8 10.5999L14.4864 9.91354C14.5225 9.87753 14.5511 9.83475 14.5706 9.78766C14.59 9.74058 14.6001 9.6901 14.6 9.63914C14.5999 9.5672 14.5798 9.49671 14.5419 9.43554C14.5041 9.37437 14.4499 9.32493 14.3856 9.29274L14.0312 9.11594C13.731 8.96582 13.3911 8.91393 13.0597 8.96763C12.7284 9.02132 12.4223 9.17788 12.1848 9.41514L11.4688 10.1311C11.1687 10.4311 11.0001 10.838 11 11.2623V13.7999" stroke="#979797" stroke-linecap="round" stroke-linejoin="round"/>
<path d="M4.2 13.8L1.1408 10.7408C1.05076 10.6509 1.00011 10.5289 1 10.4016V6.2C1 5.88174 1.12643 5.57652 1.35147 5.35147C1.57652 5.12643 1.88174 5 2.2 5V5C2.51826 5 2.82348 5.12643 3.04853 5.35147C3.27357 5.57652 3.4 5.88174 3.4 6.2V9.8" stroke="#979797" stroke-linecap="round" stroke-linejoin="round"/>
<path d="M4.1999 10.5999L3.5135 9.91354C3.47748 9.8775 3.4489 9.83472 3.42941 9.78764C3.40992 9.74056 3.39989 9.6901 3.3999 9.63914V9.63914C3.3999 9.49274 3.4831 9.35914 3.6143 9.29274L3.9687 9.11594C4.26895 8.96582 4.60881 8.91393 4.94018 8.96763C5.27154 9.02132 5.57763 9.17788 5.8151 9.41514L6.5311 10.1311C6.83118 10.4311 6.99981 10.838 6.9999 11.2623V13.7999" stroke="#979797" stroke-linecap="round" stroke-linejoin="round"/>
<path d="M10.3334 7.4H7.6662V5.5336H5.7998V2.8664H7.6662V1H10.3334V2.8664H12.1998V5.5336H10.3334V7.4Z" stroke="#979797" stroke-linecap="round" stroke-linejoin="round"/>
</svg>
