<svg width="22" height="24" viewBox="0 0 22 24" fill="none" xmlns="http://www.w3.org/2000/svg">
<path d="M2 7.28561C2 7.05828 2.11853 6.84026 2.32951 6.67952C2.54048 6.51877 2.82663 6.42847 3.125 6.42847H18.875C19.1734 6.42847 19.4595 6.51877 19.6705 6.67952C19.8815 6.84026 20 7.05828 20 7.28561C20 7.51294 19.8815 7.73096 19.6705 7.8917C19.4595 8.05245 19.1734 8.14275 18.875 8.14275H3.125C2.82663 8.14275 2.54048 8.05245 2.32951 7.8917C2.11853 7.73096 2 7.51294 2 7.28561Z" fill="white"/>
<path d="M3.125 11.1428C2.82663 11.1428 2.54048 11.2331 2.32951 11.3939C2.11853 11.5546 2 11.7726 2 12C2 12.2273 2.11853 12.4453 2.32951 12.6061C2.54048 12.7668 2.82663 12.8571 3.125 12.8571H12.125C12.4234 12.8571 12.7095 12.7668 12.9205 12.6061C13.1315 12.4453 13.25 12.2273 13.25 12C13.25 11.7726 13.1315 11.5546 12.9205 11.3939C12.7095 11.2331 12.4234 11.1428 12.125 11.1428H3.125Z" fill="white"/>
<path d="M2 16.7143C2 16.487 2.11853 16.269 2.32951 16.1082C2.54048 15.9475 2.82663 15.8572 3.125 15.8572H18.875C19.1734 15.8572 19.4595 15.9475 19.6705 16.1082C19.8815 16.269 20 16.487 20 16.7143C20 16.9416 19.8815 17.1597 19.6705 17.3204C19.4595 17.4812 19.1734 17.5715 18.875 17.5715H3.125C2.82663 17.5715 2.54048 17.4812 2.32951 17.3204C2.11853 17.1597 2 16.9416 2 16.7143Z" fill="white"/>
</svg>
